{
    "asset" : {
        "generator" : "Khronos glTF Blender I/O v1.4.40",
        "version" : "2.0"
    },
    "scene" : 0,
    "scenes" : [
        {
            "name" : "Scene",
            "nodes" : [
                0,
                1,
                2,
                3
            ]
        }
    ],
    "nodes" : [
        {
            "mesh" : 0,
            "name" : "underscore",
            "translation" : [
                0,
                0.18000000715255737,
                0.25
            ]
        },
        {
            "mesh" : 1,
            "name" : "button",
            "translation" : [
                0,
                -0.6000000238418579,
                0.10000000149011612
            ]
        },
        {
            "mesh" : 2,
            "name" : "card"
        },
        {
            "mesh" : 3,
            "name" : "input",
            "translation" : [
                0,
                0.30000001192092896,
                0.10000000149011612
            ]
        }
    ],
    "meshes" : [
        {
            "name" : "Cube.002",
            "primitives" : [
                {
                    "attributes" : {
                        "POSITION" : 0,
                        "NORMAL" : 1,
                        "TEXCOORD_0" : 2
                    },
                    "indices" : 3
                }
            ]
        },
        {
            "name" : "Cube.006",
            "primitives" : [
                {
                    "attributes" : {
                        "POSITION" : 4,
                        "NORMAL" : 5,
                        "TEXCOORD_0" : 6
                    },
                    "indices" : 7
                }
            ]
        },
        {
            "name" : "Cube.001",
            "primitives" : [
                {
                    "attributes" : {
                        "POSITION" : 8,
                        "NORMAL" : 9,
                        "TEXCOORD_0" : 10
                    },
                    "indices" : 11
                }
            ]
        },
        {
            "name" : "Plane",
            "primitives" : [
                {
                    "attributes" : {
                        "POSITION" : 12,
                        "NORMAL" : 13,
                        "TEXCOORD_0" : 14
                    },
                    "indices" : 15
                }
            ]
        }
    ],
    "accessors" : [
        {
            "bufferView" : 0,
            "componentType" : 5126,
            "count" : 24,
            "max" : [
                0.6499999761581421,
                0.004999999888241291,
                0.25
            ],
            "min" : [
                -0.6499999761581421,
                -0.004999999888241291,
                -0.25
            ],
            "type" : "VEC3"
        },
        {
            "bufferView" : 1,
            "componentType" : 5126,
            "count" : 24,
            "type" : "VEC3"
        },
        {
            "bufferView" : 2,
            "componentType" : 5126,
            "count" : 24,
            "type" : "VEC2"
        },
        {
            "bufferView" : 3,
            "componentType" : 5123,
            "count" : 36,
            "type" : "SCALAR"
        },
        {
            "bufferView" : 4,
            "componentType" : 5126,
            "count" : 864,
            "max" : [
                0.6000000238418579,
                0.15000000596046448,
                0.05000000074505806
            ],
            "min" : [
                -0.6000000238418579,
                -0.15000000596046448,
                -0.05000000074505806
            ],
            "type" : "VEC3"
        },
        {
            "bufferView" : 5,
            "componentType" : 5126,
            "count" : 864,
            "type" : "VEC3"
        },
        {
            "bufferView" : 6,
            "componentType" : 5126,
            "count" : 864,
            "type" : "VEC2"
        },
        {
            "bufferView" : 7,
            "componentType" : 5123,
            "count" : 1284,
            "type" : "SCALAR"
        },
        {
            "bufferView" : 8,
            "componentType" : 5126,
            "count" : 440,
            "max" : [
                1,
                1,
                0.10000000149011612
            ],
            "min" : [
                -1,
                -1,
                -0.10000000149011612
            ],
            "type" : "VEC3"
        },
        {
            "bufferView" : 9,
            "componentType" : 5126,
            "count" : 440,
            "type" : "VEC3"
        },
        {
            "bufferView" : 10,
            "componentType" : 5126,
            "count" : 440,
            "type" : "VEC2"
        },
        {
            "bufferView" : 11,
            "componentType" : 5123,
            "count" : 852,
            "type" : "SCALAR"
        },
        {
            "bufferView" : 12,
            "componentType" : 5126,
            "count" : 24,
            "max" : [
                0.75,
                0.15000000596046448,
                6.556708509464215e-09
            ],
            "min" : [
                -0.75,
                -0.15000000596046448,
                -6.556708509464215e-09
            ],
            "type" : "VEC3"
        },
        {
            "bufferView" : 13,
            "componentType" : 5126,
            "count" : 24,
            "type" : "VEC3"
        },
        {
            "bufferView" : 14,
            "componentType" : 5126,
            "count" : 24,
            "type" : "VEC2"
        },
        {
            "bufferView" : 15,
            "componentType" : 5123,
            "count" : 66,
            "type" : "SCALAR"
        }
    ],
    "bufferViews" : [
        {
            "buffer" : 0,
            "byteLength" : 288,
            "byteOffset" : 0
        },
        {
            "buffer" : 0,
            "byteLength" : 288,
            "byteOffset" : 288
        },
        {
            "buffer" : 0,
            "byteLength" : 192,
            "byteOffset" : 576
        },
        {
            "buffer" : 0,
            "byteLength" : 72,
            "byteOffset" : 768
        },
        {
            "buffer" : 0,
            "byteLength" : 10368,
            "byteOffset" : 840
        },
        {
            "buffer" : 0,
            "byteLength" : 10368,
            "byteOffset" : 11208
        },
        {
            "buffer" : 0,
            "byteLength" : 6912,
            "byteOffset" : 21576
        },
        {
            "buffer" : 0,
            "byteLength" : 2568,
            "byteOffset" : 28488
        },
        {
            "buffer" : 0,
            "byteLength" : 5280,
            "byteOffset" : 31056
        },
        {
            "buffer" : 0,
            "byteLength" : 5280,
            "byteOffset" : 36336
        },
        {
            "buffer" : 0,
            "byteLength" : 3520,
            "byteOffset" : 41616
        },
        {
            "buffer" : 0,
            "byteLength" : 1704,
            "byteOffset" : 45136
        },
        {
            "buffer" : 0,
            "byteLength" : 288,
            "byteOffset" : 46840
        },
        {
            "buffer" : 0,
            "byteLength" : 288,
            "byteOffset" : 47128
        },
        {
            "buffer" : 0,
            "byteLength" : 192,
            "byteOffset" : 47416
        },
        {
            "buffer" : 0,
            "byteLength" : 132,
            "byteOffset" : 47608
        }
    ],
    "buffers" : [
        {
            "byteLength" : 47740,
            "uri" : "data:application/octet-stream;base64,"
        }
    ]
}
